<svg xmlns="http://www.w3.org/2000/svg" xmlns:xlink="http://www.w3.org/1999/xlink" id="Layer_1" x="0px" y="0px" viewBox="0 0 740.6 213.2" style="enable-background:new 0 0 740.6 213.2;" xml:space="preserve"><style type="text/css">	.st0{fill:url(#SVGID_1_);}	.st1{fill:none;stroke:#231F20;stroke-width:0.25;stroke-miterlimit:10;}	.st2{fill:url(#SVGID_2_);}	.st3{fill:url(#SVGID_3_);}	.st4{fill:url(#SVGID_4_);}	.st5{fill:url(#SVGID_5_);}	.st6{fill:url(#SVGID_6_);}	.st7{fill:url(#SVGID_7_);}	.st8{fill:url(#SVGID_8_);}	.st9{fill:url(#SVGID_9_);}	.st10{fill:url(#SVGID_10_);}	.st11{fill:url(#SVGID_11_);}	.st12{fill:url(#SVGID_12_);}	.st13{fill:url(#SVGID_13_);}	.st14{fill:url(#SVGID_14_);}	.st15{fill:url(#SVGID_15_);}	.st16{fill:url(#SVGID_16_);}	.st17{fill:url(#SVGID_17_);}	.st18{fill:url(#SVGID_18_);}	.st19{fill:url(#SVGID_19_);}	.st20{fill:#BECDD8;}	.st21{fill:url(#SVGID_20_);}	.st22{opacity:0.2;fill:#FFFFFF;enable-background:new    ;}	.st23{fill:#D0AB6D;}</style><title>Header Logo</title><linearGradient id="SVGID_1_" gradientUnits="userSpaceOnUse" x1="33.78" y1="895.09" x2="33.78" y2="1047.64" gradientTransform="matrix(1 0 0 1 0 -864)">	<stop offset="0" style="stop-color:#8397AD"></stop>	<stop offset="1" style="stop-color:#BECDD8"></stop></linearGradient><path class="st0" d="M65.9,169.3L65.9,169.3c-30.8-7.3-53.6-32.3-53.6-62C12.4,79.6,32.2,56,59.9,47l7.6-15.9 C29.2,37.3,0,69.3,0,107.9c0,36.7,26.5,67.5,62.2,75.8"></path><line class="st1" x1="71.9" y1="185.3" x2="71.9" y2="185.3"></line><line class="st1" x1="88.6" y1="30.3" x2="88.6" y2="30.3"></line><path class="st1" d="M56.3,67.1c-1.1,1-2.1,2-3.1,3.1"></path><linearGradient id="SVGID_2_" gradientUnits="userSpaceOnUse" x1="98.068" y1="864" x2="98.068" y2="1013.71" gradientTransform="matrix(1 0 0 1 0 -864)">	<stop offset="0" style="stop-color:#D8BA86"></stop>	<stop offset="1" style="stop-color:#B08D57"></stop></linearGradient><path class="st2" d="M106.6,0c0,0-31.2,31.6-20.5,74.8s22.3,37,20.5,74.9c0,0,13.6-16.6-1.6-43.4S95.6,59.4,99.5,55 s-0.8-23.2-0.8-23.2S98.2,13.4,106.6,0z"></path><linearGradient id="SVGID_3_" gradientUnits="userSpaceOnUse" x1="65.6219" y1="921.06" x2="65.6219" y2="1075.21" gradientTransform="matrix(1 0 0 1 0 -864)">	<stop offset="0" style="stop-color:#8397AD"></stop>	<stop offset="1" style="stop-color:#BECDD8"></stop></linearGradient><path class="st3" d="M57.8,57.1c0,0-12.3,15.3,1.8,44.4s14.9,43.9,6.3,67.8l-3.8,14.4c0,0-2.1,16.9-7.7,27.6c0,0,31.8-25.9,22-81.9 c0,0-7.7-22.2-12.9-32.6S53.6,64,57.8,57.1z"></path><linearGradient id="SVGID_4_" gradientUnits="userSpaceOnUse" x1="86.9513" y1="1007.0386" x2="97.6287" y2="996.3613" gradientTransform="matrix(1 0 0 1 0 -864)">	<stop offset="0" style="stop-color:#EBE8DD"></stop>	<stop offset="0.51" style="stop-color:#B5B0A9"></stop>	<stop offset="1" style="stop-color:#F1F0EF"></stop></linearGradient><circle class="st4" cx="92.3" cy="137.7" r="7.6"></circle><linearGradient id="SVGID_5_" gradientUnits="userSpaceOnUse" x1="82.3676" y1="987.7424" x2="92.5924" y2="977.5176" gradientTransform="matrix(1 0 0 1 0 -864)">	<stop offset="0" style="stop-color:#EBE8DD"></stop>	<stop offset="0.51" style="stop-color:#B5B0A9"></stop>	<stop offset="1" style="stop-color:#F1F0EF"></stop></linearGradient><circle class="st5" cx="87.5" cy="118.6" r="7.2"></circle><linearGradient id="SVGID_6_" gradientUnits="userSpaceOnUse" x1="75.0976" y1="970.5724" x2="85.3224" y2="960.3476" gradientTransform="matrix(1 0 0 1 0 -864)">	<stop offset="0" style="stop-color:#EBE8DD"></stop>	<stop offset="0.51" style="stop-color:#B5B0A9"></stop>	<stop offset="1" style="stop-color:#F1F0EF"></stop></linearGradient><circle class="st6" cx="80.2" cy="101.5" r="7.2"></circle><linearGradient id="SVGID_7_" gradientUnits="userSpaceOnUse" x1="69.1617" y1="953.7083" x2="78.7783" y2="944.0917" gradientTransform="matrix(1 0 0 1 0 -864)">	<stop offset="0" style="stop-color:#EBE8DD"></stop>	<stop offset="0.51" style="stop-color:#B5B0A9"></stop>	<stop offset="1" style="stop-color:#F1F0EF"></stop></linearGradient><circle class="st7" cx="74" cy="84.9" r="6.8"></circle><linearGradient id="SVGID_8_" gradientUnits="userSpaceOnUse" x1="66.1695" y1="938.3405" x2="75.6305" y2="928.8795" gradientTransform="matrix(1 0 0 1 0 -864)">	<stop offset="0" style="stop-color:#EBE8DD"></stop>	<stop offset="0.51" style="stop-color:#B5B0A9"></stop>	<stop offset="1" style="stop-color:#F1F0EF"></stop></linearGradient><circle class="st8" cx="70.9" cy="69.6" r="6.7"></circle><linearGradient id="SVGID_9_" gradientUnits="userSpaceOnUse" x1="67.6496" y1="923.2604" x2="75.8904" y2="915.0397" gradientTransform="matrix(1 0 0 1 0 -864)">	<stop offset="0" style="stop-color:#EBE8DD"></stop>	<stop offset="0.51" style="stop-color:#B5B0A9"></stop>	<stop offset="1" style="stop-color:#F1F0EF"></stop></linearGradient><circle class="st9" cx="71.8" cy="55.2" r="5.8"></circle><linearGradient id="SVGID_10_" gradientUnits="userSpaceOnUse" x1="71.24" y1="908.52" x2="77.208" y2="902.552" gradientTransform="matrix(1 0 0 1 0 -864)">	<stop offset="0" style="stop-color:#EBE8DD"></stop>	<stop offset="0.51" style="stop-color:#B5B0A9"></stop>	<stop offset="1" style="stop-color:#F1F0EF"></stop></linearGradient><circle class="st10" cx="74.2" cy="41.5" r="4.2"></circle><linearGradient id="SVGID_11_" gradientUnits="userSpaceOnUse" x1="75.1125" y1="897.6176" x2="79.4125" y2="893.3375" gradientTransform="matrix(1 0 0 1 0 -864)">	<stop offset="0" style="stop-color:#EBE8DD"></stop>	<stop offset="0.51" style="stop-color:#B5B0A9"></stop>	<stop offset="1" style="stop-color:#F1F0EF"></stop></linearGradient><circle class="st11" cx="77.3" cy="31.5" r="3"></circle><linearGradient id="SVGID_12_" gradientUnits="userSpaceOnUse" x1="79.47" y1="889.13" x2="82.25" y2="886.35" gradientTransform="matrix(1 0 0 1 0 -864)">	<stop offset="0" style="stop-color:#EBE8DD"></stop>	<stop offset="0.51" style="stop-color:#B5B0A9"></stop>	<stop offset="1" style="stop-color:#F1F0EF"></stop></linearGradient><circle class="st12" cx="80.9" cy="23.7" r="2"></circle><linearGradient id="SVGID_13_" gradientUnits="userSpaceOnUse" x1="83.82" y1="882.88" x2="86.61" y2="880.09" gradientTransform="matrix(1 0 0 1 0 -864)">	<stop offset="0" style="stop-color:#EBE8DD"></stop>	<stop offset="0.51" style="stop-color:#B5B0A9"></stop>	<stop offset="1" style="stop-color:#F1F0EF"></stop></linearGradient><circle class="st13" cx="85.2" cy="17.5" r="2"></circle><linearGradient id="SVGID_14_" gradientUnits="userSpaceOnUse" x1="64.1" y1="1076.6" x2="66.89" y2="1073.8101" gradientTransform="matrix(1 0 0 1 0 -864)">	<stop offset="0" style="stop-color:#EBE8DD"></stop>	<stop offset="0.51" style="stop-color:#B5B0A9"></stop>	<stop offset="1" style="stop-color:#F1F0EF"></stop></linearGradient><circle class="st14" cx="65.5" cy="211.2" r="2"></circle><linearGradient id="SVGID_15_" gradientUnits="userSpaceOnUse" x1="69.38" y1="1070.85" x2="72.17" y2="1068.0601" gradientTransform="matrix(1 0 0 1 0 -864)">	<stop offset="0" style="stop-color:#EBE8DD"></stop>	<stop offset="0.51" style="stop-color:#B5B0A9"></stop>	<stop offset="1" style="stop-color:#F1F0EF"></stop></linearGradient><circle class="st15" cx="70.8" cy="205.4" r="2"></circle><linearGradient id="SVGID_16_" gradientUnits="userSpaceOnUse" x1="83.7595" y1="1042.6705" x2="93.2205" y2="1033.2095" gradientTransform="matrix(1 0 0 1 0 -864)">	<stop offset="0" style="stop-color:#EBE8DD"></stop>	<stop offset="0.51" style="stop-color:#B5B0A9"></stop>	<stop offset="1" style="stop-color:#F1F0EF"></stop></linearGradient><circle class="st16" cx="88.5" cy="173.9" r="6.7"></circle><linearGradient id="SVGID_17_" gradientUnits="userSpaceOnUse" x1="78.3946" y1="1055.6254" x2="86.6346" y2="1047.3854" gradientTransform="matrix(1 0 0 1 0 -864)">	<stop offset="0" style="stop-color:#EBE8DD"></stop>	<stop offset="0.51" style="stop-color:#B5B0A9"></stop>	<stop offset="1" style="stop-color:#F1F0EF"></stop></linearGradient><circle class="st17" cx="82.5" cy="187.5" r="5.8"></circle><linearGradient id="SVGID_18_" gradientUnits="userSpaceOnUse" x1="73.54" y1="1064.62" x2="79.508" y2="1058.652" gradientTransform="matrix(1 0 0 1 0 -864)">	<stop offset="0" style="stop-color:#EBE8DD"></stop>	<stop offset="0.51" style="stop-color:#B5B0A9"></stop>	<stop offset="1" style="stop-color:#F1F0EF"></stop></linearGradient><circle class="st18" cx="76.5" cy="197.6" r="4.2"></circle><linearGradient id="SVGID_19_" gradientUnits="userSpaceOnUse" x1="86.9017" y1="1024.7983" x2="96.5183" y2="1015.1817" gradientTransform="matrix(1 0 0 1 0 -864)">	<stop offset="0" style="stop-color:#EBE8DD"></stop>	<stop offset="0.51" style="stop-color:#B5B0A9"></stop>	<stop offset="1" style="stop-color:#F1F0EF"></stop></linearGradient><circle class="st19" cx="91.7" cy="156" r="6.8"></circle><path class="st20" d="M62.1,34.7c-0.2,0.4-4.7,0.9-5.2,1c-4.6,1.2-9,2.8-13.2,4.9c-14,7-25.4,18.3-32.7,32.1 c-12.1,22.5-13.1,48.9,1.5,70.7c-1.4-2-1.7-5.8-2.2-8.1c-1.5-6.8-2.3-13.7-2.4-20.7C7.7,95.2,14,75.3,28.7,61.9 c3.9-3.4,8.1-6.5,12.6-9.2c2.5-1.6,5-3,7.6-4.3c1.2-0.6,7.4-2.2,7.8-3.1L62.1,34.7z"></path><linearGradient id="SVGID_20_" gradientUnits="userSpaceOnUse" x1="130.035" y1="895.75" x2="130.035" y2="1048.27" gradientTransform="matrix(1 0 0 1 0 -864)">	<stop offset="0" style="stop-color:#D8BA86"></stop>	<stop offset="1" style="stop-color:#B08D57"></stop></linearGradient><path class="st21" d="M97.5,184.3c4.6-8.9,8.4-25.1,8.4-25.1c23.2-6.6,39.1-27.9,39-52c0-26.8-19.3-49.1-44.6-53.2 c1.6-7.9-1.6-22.1-1.6-22.1l0,0c36.5,7.6,63.9,38.8,63.9,76.1C162.6,145.6,134.6,177.1,97.5,184.3L97.5,184.3"></path><path class="st22" d="M109.5,161.1c-0.5,0.7-0.9,1.5-1.1,2.4l-4.6,14.4c12-3.3,23.2-9.3,32.7-17.4c9.5-8.2,16.4-19,20-31 c3.5-12.2,2.9-25.3-0.6-37.5c-3.4-11.9-9.6-22.8-17-32.7c10.2,16.9,15.4,37.3,11.2,57s-18.6,37.5-37.8,43.5 c-0.9,0.2-1.7,0.6-2.4,1.1L109.5,161.1z"></path><g>	<path class="st23" d="M260.8,58.3V59h-0.6c-2.1,0-5,1.2-6.1,4.2l-11.9,38.3c0,0-1.4,4.4-1.3,7.9h-0.7L224.7,75l-11.2,26.4  c0,0-1.7,4.1-1.7,7.9h-0.7l-17-46.2c-1.3-2.9-4-4.1-6.1-4.1h-0.6v-0.7h21.7V59h-0.6c-1.8,0-3.7,1.6-2.7,4.4l8.7,24.7l12.9-30.9  l0.7,0l14.1,31.2l7.1-25c0.8-2.8-0.7-4.4-2.7-4.4h-0.6v-0.7H260.8z"></path>	<path class="st23" d="M293.8,108h-0.2h-33.3v-0.7h0.9c2.1,0,3.8-1.6,3.8-3.7V69.8c0-2.1-1.7-3.7-3.8-3.7h-0.9v-0.7h25  c2.7,0,6.3-0.6,7.4-1.1v11.3h-0.7v-0.7c0-4.1-2.4-6.7-6.5-6.7h-10.2v17.2h8.1c3.3-0.1,5.4-2.4,5.4-5.6v-0.5h0.7v15h-0.7v-0.5  c0-3.2-2-5.5-5.3-5.6h-8.2v16.9h8.6c6-0.1,10.1-3.9,12-10.2h0.7L293.8,108z"></path>	<path class="st23" d="M333.6,108h-33.4v-0.7h0.9c2.1,0,3.8-1.6,3.8-3.7V69.8c0-2.1-1.8-3.8-3.9-3.8h-0.8v-0.7h19.7v0.7H319  c-2.2,0-3.9,1.6-3.9,3.8v35.3h8.6c6-0.1,10.1-3.9,12-10.2h0.7L333.6,108z"></path>	<path class="st23" d="M371.9,108h-33.4v-0.7h0.9c2.1,0,3.8-1.6,3.8-3.7V69.8c0-2.1-1.8-3.8-3.9-3.8h-0.8v-0.7h19.7v0.7h-0.8  c-2.2,0-3.9,1.6-3.9,3.8v35.3h8.6c6-0.1,10.1-3.9,12-10.2h0.7L371.9,108z"></path>	<path class="st23" d="M439.1,103.2c1.5,2.9,4,4.1,6.1,4.1h0.6v0.7h-22.6v-0.7h0.6c1.8,0,3.8-1.6,2.7-4.5l-3.5-8.8h-16.7l-3.6,8.8  c-1.2,2.8,0.9,4.5,2.7,4.5h0.6v0.7h-15.2v-0.7h0.6c2,0,4.5-1.2,6-4l16.4-37.2c0.5-1.1,3.3-7.2,3.5-9.3h0.6L439.1,103.2z   M421.8,91.1l-7-17.5l-7.3,17.5H421.8z"></path>	<path class="st23" d="M470,65.4c15.3,0,24.4,8,24.4,21.4c0,13.4-9.2,21.3-24.4,21.3h-24v-0.7h0.9c2.2,0,3.9-1.7,4-3.8V69.8  c-0.1-2.2-1.8-3.7-4-3.7h-0.9v-0.7L470,65.4z M461.1,105.2h8c8.9,0,14.4-6.9,14.4-18.4c0-11.6-5.5-18.6-14.4-18.6h-8V105.2z"></path>	<path class="st23" d="M519.2,65.4l0,0.7h-0.8c-2.2,0-4.1,1.7-4.1,3.8v35.9c0,9.4-8.6,15.4-17.6,14.6v-0.6c5.5-2.3,7.4-8.3,7.4-14.1  V69.8c-0.1-2.1-1.9-3.7-4.1-3.7H499l0-0.7H519.2z"></path>	<path class="st23" d="M569.4,65.4v0.7h-1c-1.8,0-3.2,1.2-3.2,2.9v23.5c0,10.2-6.5,16.4-17.9,16.4c-13.7,0-20.4-6.1-20.4-16.3V69.1  c0-1.8-1.5-3-3.2-3h-1v-0.7h18.7v0.7h-1c-1.8,0-3.2,1.2-3.2,3v23.1c0,8.7,4.3,13.9,11.5,13.9c7.4,0,11.8-4.9,11.9-13.1V69  c-0.1-1.8-1.5-3-3.2-3h-1v-0.7L569.4,65.4z"></path>	<path class="st23" d="M598.5,85.4c3.6,2.2,6.2,5.6,5.8,10.7c-0.4,8-6.8,12.9-16.7,12.9c-6.1,0-11.1-1.6-13.1-3.8  c-1.1-2.7-0.1-8.1,1.6-10.8h0.6c-0.4,6.4,4.2,11.8,11.7,11.8c5.5,0,8.2-3,8.2-6.5c0-2.5-1.7-4.1-5.3-6.4l-10.1-6.4  c-4.5-2.9-6.8-6.8-6.3-11.6c0.6-6.8,5.6-10.8,12.8-10.8c2.4,0,6.3,0.3,9.2,0.6h3.9l-1,9.3h-0.6c0-4.3-3.2-7.1-8.8-7.1  c-4.6,0-7.6,2.3-7.8,5.5c-0.2,2.6,1.9,4,4.6,5.6L598.5,85.4z"></path>	<path class="st23" d="M648.4,75.5h-0.7v-0.7c0-4.1-2.4-6.6-6.5-6.7H633v35.5c0,2.1,1.8,3.7,3.9,3.7h0.8v0.7H618v-0.7h0.8  c2.1,0,3.9-1.6,3.9-3.8V68.1h-8.2c-4.2,0.1-6.5,2.6-6.5,6.7v0.7h-0.7V64.2c1.2,0.5,4.8,1.1,7.5,1.1h26.2c2.7,0,6.6-0.6,7.5-1.1  L648.4,75.5z"></path>	<path class="st23" d="M685.6,108h-0.2h-33.3v-0.7h0.9c2.1,0,3.8-1.6,3.8-3.7V69.8c0-2.1-1.7-3.7-3.8-3.7h-0.9v-0.7h25  c2.7,0,6.3-0.6,7.4-1.1v11.3h-0.7v-0.7c0-4.1-2.4-6.7-6.5-6.7h-10.2v17.2h8.1c3.3-0.1,5.4-2.4,5.4-5.6v-0.5h0.7v15h-0.7v-0.5  c0-3.2-2-5.5-5.3-5.6h-8.2v16.9h8.6c6-0.1,10.1-3.9,12-10.2h0.7L685.6,108z"></path>	<path class="st23" d="M715.8,65.4c15.3,0,24.4,8,24.4,21.4c0,13.4-9.2,21.3-24.4,21.3h-24v-0.7h0.9c2.2,0,3.9-1.7,4-3.8V69.8  c-0.1-2.2-1.8-3.7-4-3.7h-0.9v-0.7L715.8,65.4z M707,105.2h8c8.9,0,14.4-6.9,14.4-18.4c0-11.6-5.5-18.6-14.4-18.6h-8L707,105.2z"></path>	<path class="st23" d="M251.7,147.2l0.7,12.2c-3.2,5.3-9.2,9.5-20,9.5c-17.5-0.1-28.8-9.7-28.8-25.9c0-15.9,11-25.8,29-25.8  c7.6,0,13.6,1.8,17.7,3.9l0.1,12.2h-0.6c-2.6-9.3-8.7-13-16.5-13.1c-11.3,0-18.2,8.7-18.2,22.7c0,14.1,6.7,22.8,17.2,23.1  c10.9,0,16.5-4.8,18.7-18.8H251.7z"></path>	<path class="st23" d="M306,126c-2.1,0-3.8,1.6-3.9,3.8v33.7c0,2.1,1.7,3.7,3.9,3.7h0.8v0.7h-19.6v-0.7h0.8c2.1,0,3.8-1.6,3.9-3.8  v-15.4h-18.7v15.4c0.1,2.1,1.8,3.8,3.9,3.8h0.8v0.7h-19.6v-0.7h0.8c2.1,0,3.8-1.6,3.9-3.8v-33.7c0-2.1-1.8-3.8-3.9-3.8h-0.8v-0.7  h19.6v0.7h-0.8c-2.1,0-3.8,1.6-3.9,3.7v15.6h18.7v-15.5c-0.1-2.1-1.8-3.8-3.9-3.8h-0.8v-0.7h19.6v0.7L306,126z"></path>	<path class="st23" d="M311.2,167.9v-0.7h0.8c2.2,0,4.1-1.6,4.1-3.8v-33.7c0-2.1-1.9-3.8-4.1-3.8h-0.8v-0.7h20.2v0.7h-0.8  c-2.2,0-4.1,1.6-4.1,3.7v33.8c0.1,2.1,1.9,3.8,4.1,3.8h0.8v0.7H311.2z"></path>	<path class="st23" d="M358.1,125.3c7.9,0,15.5,2.8,15.5,11.6c0,5-2.9,10.5-9.9,11.5c2.8,0.9,5.5,3.9,6.9,6c0.6,1.1,2.7,4.6,5.2,7.9  c2.8,3.8,4.4,4.8,7.3,4.8v0.7h-6c-7.7,0-11.4-1.5-14.7-6.8c-1.6-2.5-4.1-7.3-4.8-9.7c-1.2-3-2.9-4.2-4.3-4.4v-0.6h1.8  c2.9,0,6.2-1.1,7.4-7.1c0.1-0.6,0.3-1.6,0.2-3c-0.3-7-5.1-8-7.6-8.1c-1.8-0.1-3.3,0-4.1,0v35.2c0,2.4,2,3.8,3.9,3.8h0.8v0.7h-19.6  v-0.7h0.9c2,0,3.7-1.6,3.8-3.7v-33.8c0-2.1-1.7-3.7-3.7-3.7h-0.9v-0.7L358.1,125.3z"></path>	<path class="st23" d="M431.6,146.6c0,13.7-10.1,22.2-25.2,22.2c-15,0-25.1-8.5-25.1-22.2c0-13.8,10.1-22.3,25.1-22.3  C421.5,124.4,431.6,132.9,431.6,146.6z M420.7,146.6c0-12-5.6-19.5-14.2-19.5c-8.6,0-14.2,7.4-14.2,19.5c0,12,5.6,19.4,14.2,19.4  C415.1,166.1,420.7,158.6,420.7,146.6z"></path>	<path class="st23" d="M456.7,125.3c11.4,0,16.3,5.2,16.5,11.8c0.5,11.3-11,17.3-20.3,11.1v-0.6c0,0,7,0.8,9.1-7.2  c0.3-1.2,0.4-2.7,0.4-3.8c-0.2-5.2-3.3-8.5-8.5-8.5h-3.2v35.4c0.1,2.1,1.6,3.8,3.9,3.8h0.8v0.7h-19.6v-0.7h0.8  c2.1,0,3.8-1.6,3.8-3.7v-33.8c0-2.1-1.7-3.7-3.9-3.7h-0.8v-0.7L456.7,125.3z"></path>	<path class="st23" d="M499.5,125.3c7.9,0,15.5,2.8,15.5,11.6c0,5-2.9,10.5-9.9,11.5c2.8,0.9,5.5,3.9,6.9,6c0.6,1.1,2.7,4.6,5.2,7.9  c2.8,3.8,4.4,4.8,7.3,4.8v0.7h-6c-7.7,0-11.4-1.5-14.7-6.8c-1.6-2.5-4.1-7.3-4.8-9.7c-1.2-3-2.9-4.2-4.3-4.4v-0.6h1.8  c2.9,0,6.2-1.1,7.4-7.1c0.1-0.6,0.3-1.6,0.2-3c-0.3-7-5.1-8-7.6-8.1c-1.8-0.1-3.3,0-4.1,0v35.2c0,2.4,2,3.8,3.9,3.8h0.8v0.7h-19.6  v-0.7h0.9c2,0,3.7-1.6,3.8-3.7v-33.8c0-2.1-1.7-3.7-3.7-3.7h-0.9v-0.7L499.5,125.3z"></path>	<path class="st23" d="M564.5,163.3c1.4,2.9,3.6,4,5.6,4h0.5v0.7h-20.9v-0.7h0.6c1.6,0,3.5-1.4,2.4-4l-2.8-6.5h-15.1l-2.8,6.6  c-1,2.5,0.8,3.9,2.5,3.9h0.6v0.7h-14.2v-0.7h0.6c1.8,0,4.1-1,5.4-3.7l14.7-31.6c0.5-1.1,3.1-6.6,3.3-8.6h0.6L564.5,163.3z   M548.7,154l-6.3-14.8L536,154H548.7z"></path>	<path class="st23" d="M612.5,150.1l0.8,10.7c-2.8,4.5-8.6,8-17.8,8c-15.8-0.1-25.6-8.2-25.6-22.3c0-13.9,9.6-22.2,25.6-22.2  c6.5,0,12.3,1.4,16,3.2v11.3h-0.6c-2.4-8.7-7.7-11.7-14.7-11.7c-10.3,0-15.5,7.7-15.5,19.3c0,11.8,5.5,19.4,14.8,19.6  c10.1,0,14.7-4.3,16.4-15.9L612.5,150.1z"></path>	<path class="st23" d="M657.8,135.4h-0.7v-0.7c0-4.1-2.4-6.6-6.5-6.7h-8.2v35.5c0,2.1,1.8,3.7,3.9,3.7h0.8v0.7h-19.6v-0.7h0.8  c2.1,0,3.9-1.6,3.9-3.8v-35.4h-8.2c-4.2,0.1-6.5,2.6-6.5,6.7v0.7h-0.7v-11.3c1.2,0.5,4.8,1.1,7.5,1.1h26.2c2.7,0,6.6-0.6,7.5-1.1  L657.8,135.4z"></path>	<path class="st23" d="M661.6,167.9v-0.7h0.8c2.2,0,4.1-1.6,4.1-3.8v-33.7c0-2.1-1.9-3.8-4.1-3.8h-0.8v-0.7h20.2v0.7h-0.8  c-2.2,0-4.1,1.6-4.1,3.7v33.8c0.1,2.1,1.9,3.8,4.1,3.8h0.8v0.7H661.6z"></path>	<path class="st23" d="M728.6,150.1l0.8,10.7c-2.8,4.5-8.6,8-17.8,8c-15.8-0.1-25.6-8.2-25.6-22.3c0-13.9,9.6-22.2,25.6-22.2  c6.5,0,12.3,1.4,16,3.2v11.3H727c-2.4-8.7-7.7-11.7-14.7-11.7c-10.3,0-15.5,7.7-15.5,19.3c0,11.8,5.5,19.4,14.8,19.6  c10.1,0,14.7-4.3,16.4-15.9L728.6,150.1z"></path></g></svg>